HIERARCHY
ROOT pelvis
{
  OFFSET 0 100 0
  CHANNELS 6 Xposition Yposition Zposition Zrotation Xrotation Yrotation
  JOINT pelvis_right_femur
  {
    OFFSET -10.78128 -3.44521 -0.5502486
    CHANNELS 3 Zrotation Xrotation Yrotation
    JOINT right_femur_tibia
    {
      OFFSET -0.8047443 -44.0398 -0.1307829
      CHANNELS 3 Zrotation Xrotation Yrotation
      JOINT right_tibia_foot
      {
        OFFSET 3.006224 -47.83518 -5
        CHANNELS 3 Zrotation Xrotation Yrotation
        End Site
        {
          OFFSET 0 -5 15
        }
      }
    }
  }
  JOINT pelvis_left_femur
  {
    OFFSET 10.78128 -3.44521 -0.5502486
    CHANNELS 3 Zrotation Xrotation Yrotation
    JOINT left_femur_tibia
    {
      OFFSET 0.8047443 -44.0398 -0.1307829
      CHANNELS 3 Zrotation Xrotation Yrotation
      JOINT left_tibia_foot
      {
        OFFSET -4.370144 -48.10324 -4.275266
        CHANNELS 3 Zrotation Xrotation Yrotation
        End Site
        {
          OFFSET 0 -5 15
        }
      }
    }
  }
  JOINT pelvis_spine1
  {
    OFFSET 0 6.468898 -3.129235
    CHANNELS 3 Zrotation Xrotation Yrotation
    JOINT spine1
    {
      OFFSET 0 23.15396 4.99043
      CHANNELS 3 Zrotation Xrotation Yrotation
      JOINT spine2
      {
        OFFSET 0 20.79997 -5.064912
        CHANNELS 3 Zrotation Xrotation Yrotation
        JOINT neck
        {
          OFFSET 0 14.38658 9.616178
          CHANNELS 3 Zrotation Xrotation Yrotation
          End Site
          {
            OFFSET 0 20 0
          }
        }
      }
      JOINT right_manubrium
      {
        OFFSET -5.722621 16.35077 3.967754
        CHANNELS 3 Zrotation Xrotation Yrotation
        JOINT right_clavicle
        {
          OFFSET -13.16364 1.694482 -4.693211
          CHANNELS 3 Zrotation Xrotation Yrotation
          JOINT right_humerus
          {
            OFFSET -28.5034 -0.3100689 -2.792744
            CHANNELS 3 Zrotation Xrotation Yrotation
            JOINT right_radius
            {
              OFFSET -25.15693 0.02248979 -1.271978
              CHANNELS 3 Zrotation Xrotation Yrotation
              End Site
              {
                OFFSET -15 0 0
              }
            }
          }
        }
      }
      JOINT left_manubrium
      {
        OFFSET 5.722621 16.35077 3.967754
        CHANNELS 3 Zrotation Xrotation Yrotation
        JOINT left_clavicle
        {
          OFFSET 13.16364 1.694482 -4.693211
          CHANNELS 3 Zrotation Xrotation Yrotation
          JOINT left_humerus
          {
            OFFSET 29.39168 -1.063119 -2.237045
            CHANNELS 3 Zrotation Xrotation Yrotation
            JOINT left_radius
            {
              OFFSET 24.59957 -0.9528479 0.9047498
              CHANNELS 3 Zrotation Xrotation Yrotation
              End Site
              {
                OFFSET 15 -0 -0
              }
            }
          }
        }
      }
    }
  }
}
MOTION
Frames: 11
Frame Time: 0.0416666666667
-491.8428 102.4067 436.7996 -4.020063 5.065689 -144.3667 3.501409 12.83141 -0.8502805 -0 18.15476 -0 -16.2022 -5.915254 4.472753 1.528682 -17.26328 -5.85296 -0 13.48415 -0 6.625252 1.612898 18.07205 -0.4796908 -3.900243 7.983757 0.1588954 16.41015 -5.149819 -1.262142 19.04649 6.605152 7.724163 -15.82044 1.657039 5.784867 -27.19704 13.3085 80.10623 28.05089 -7.334083 -0 0 28.85673 -20.81911 11.93779 10.67751 5.946217 -24.48759 -8.628278 -97.58989 -0.6641804 35.79047 -0 0 6.902526 19.1972 10.0706 -13.10218
-496.3629 102.4089 433.2655 -3.926625 5.13838 -145.4173 3.501409 12.83141 -0.8502805 -0 18.15476 -0 -16.2022 -5.915254 4.472753 1.528682 -17.26328 -5.85296 -0 13.48415 -0 6.625252 1.612898 18.07205 -0.4796908 -3.900243 7.983757 0.1588954 16.41015 -5.149819 -1.262142 19.04649 6.605152 7.724163 -15.82044 1.657039 5.784867 -27.19704 13.3085 80.10623 28.05089 -7.334083 -0 0 28.85673 -20.81911 11.93779 10.67751 5.946217 -24.48759 -8.628278 -97.58989 -0.6641804 35.79047 -0 0 6.902526 19.1972 10.0706 -13.10218
-500.8177 102.4112 429.6492 -3.831853 5.209353 -146.4682 3.501409 12.83141 -0.8502805 -0 18.15476 -0 -16.2022 -5.915254 4.472753 1.528682 -17.26328 -5.85296 -0 13.48415 -0 6.625252 1.612898 18.07205 -0.4796908 -3.900243 7.983757 0.1588954 16.41015 -5.149819 -1.262142 19.04649 6.605152 7.724163 -15.82044 1.657039 5.784867 -27.19704 13.3085 80.10623 28.05089 -7.334083 -0 0 28.85673 -20.81911 11.93779 10.67751 5.946217 -24.48759 -8.628278 -97.58989 -0.6641804 35.79047 -0 0 6.902526 19.1972 10.0706 -13.10218
-505.2054 102.4134 425.952 -3.73578 5.278582 -147.5194 3.501409 12.83141 -0.8502805 -0 18.15476 -0 -16.2022 -5.915254 4.472753 1.528682 -17.26328 -5.85296 -0 13.48415 -0 6.625252 1.612898 18.07205 -0.4796908 -3.900243 7.983757 0.1588954 16.41015 -5.149819 -1.262142 19.04649 6.605152 7.724163 -15.82044 1.657039 5.784867 -27.19704 13.3085 80.10623 28.05089 -7.334083 -0 0 28.85673 -20.81911 11.93779 10.67751 5.946217 -24.48759 -8.628278 -97.58989 -0.6641804 35.79047 -0 0 6.902526 19.1972 10.0706 -13.10218
-509.5248 102.4156 422.175 -3.638437 5.346044 -148.5707 3.501409 12.83141 -0.8502805 -0 18.15476 -0 -16.2022 -5.915254 4.472753 1.528682 -17.26328 -5.85296 -0 13.48415 -0 6.625252 1.612898 18.07205 -0.4796908 -3.900243 7.983757 0.1588954 16.41015 -5.149819 -1.262142 19.04649 6.605152 7.724163 -15.82044 1.657039 5.784867 -27.19704 13.3085 80.10623 28.05089 -7.334083 -0 0 28.85673 -20.81911 11.93779 10.67751 5.946217 -24.48759 -8.628278 -97.58989 -0.6641804 35.79047 -0 0 6.902526 19.1972 10.0706 -13.10218
-513.7742 102.4178 418.3196 -3.539856 5.411717 -149.6223 3.501409 12.83141 -0.8502805 -0 18.15476 -0 -16.2022 -5.915254 4.472753 1.528682 -17.26328 -5.85296 -0 13.48415 -0 6.625252 1.612898 18.07205 -0.4796908 -3.900243 7.983757 0.1588954 16.41015 -5.149819 -1.262142 19.04649 6.605152 7.724163 -15.82044 1.657039 5.784867 -27.19704 13.3085 80.10623 28.05089 -7.334083 -0 0 28.85673 -20.81911 11.93779 10.67751 5.946217 -24.48759 -8.628278 -97.58989 -0.6641804 35.79047 -0 0 6.902526 19.1972 10.0706 -13.10218
-517.9524 102.42 414.387 -3.44007 5.475576 -150.6742 3.501409 12.83141 -0.8502805 -0 18.15476 -0 -16.2022 -5.915254 4.472753 1.528682 -17.26328 -5.85296 -0 13.48415 -0 6.625252 1.612898 18.07205 -0.4796908 -3.900243 7.983757 0.1588954 16.41015 -5.149819 -1.262142 19.04649 6.605152 7.724163 -15.82044 1.657039 5.784867 -27.19704 13.3085 80.10623 28.05089 -7.334083 -0 0 28.85673 -20.81911 11.93779 10.67751 5.946217 -24.48759 -8.628278 -97.58989 -0.6641804 35.79047 -0 0 6.902526 19.1972 10.0706 -13.10218
-522.0579 102.4222 410.3786 -3.339113 5.537602 -151.7262 3.501409 12.83141 -0.8502805 -0 18.15476 -0 -16.2022 -5.915254 4.472753 1.528682 -17.26328 -5.85296 -0 13.48415 -0 6.625252 1.612898 18.07205 -0.4796908 -3.900243 7.983757 0.1588954 16.41015 -5.149819 -1.262142 19.04649 6.605152 7.724163 -15.82044 1.657039 5.784867 -27.19704 13.3085 80.10623 28.05089 -7.334083 -0 0 28.85673 -20.81911 11.93779 10.67751 5.946217 -24.48759 -8.628278 -97.58989 -0.6641804 35.79047 -0 0 6.902526 19.1972 10.0706 -13.10218
-526.0893 102.4244 406.2958 -3.237018 5.597771 -152.7785 3.501409 12.83141 -0.8502805 -0 18.15476 -0 -16.2022 -5.915254 4.472753 1.528682 -17.26328 -5.85296 -0 13.48415 -0 6.625252 1.612898 18.07205 -0.4796908 -3.900243 7.983757 0.1588954 16.41015 -5.149819 -1.262142 19.04649 6.605152 7.724163 -15.82044 1.657039 5.784867 -27.19704 13.3085 80.10623 28.05089 -7.334083 -0 0 28.85673 -20.81911 11.93779 10.67751 5.946217 -24.48759 -8.628278 -97.58989 -0.6641804 35.79047 -0 0 6.902526 19.1972 10.0706 -13.10218
-530.0453 102.4267 402.1398 -3.13382 5.656065 -153.8309 3.501409 12.83141 -0.8502805 -0 18.15476 -0 -16.2022 -5.915254 4.472753 1.528682 -17.26328 -5.85296 -0 13.48415 -0 6.625252 1.612898 18.07205 -0.4796908 -3.900243 7.983757 0.1588954 16.41015 -5.149819 -1.262142 19.04649 6.605152 7.724163 -15.82044 1.657039 5.784867 -27.19704 13.3085 80.10623 28.05089 -7.334083 -0 0 28.85673 -20.81911 11.93779 10.67751 5.946217 -24.48759 -8.628278 -97.58989 -0.6641804 35.79047 -0 0 6.902526 19.1972 10.0706 -13.10218
-533.9245 102.4289 397.912 -3.029552 5.712461 -154.8836 3.501409 12.83141 -0.8502805 -0 18.15476 -0 -16.2022 -5.915254 4.472753 1.528682 -17.26328 -5.85296 -0 13.48415 -0 6.625252 1.612898 18.07205 -0.4796908 -3.900243 7.983757 0.1588954 16.41015 -5.149819 -1.262142 19.04649 6.605152 7.724163 -15.82044 1.657039 5.784867 -27.19704 13.3085 80.10623 28.05089 -7.334083 -0 0 28.85673 -20.81911 11.93779 10.67751 5.946217 -24.48759 -8.628278 -97.58989 -0.6641804 35.79047 -0 0 6.902526 19.1972 10.0706 -13.10218
